<?xml version="1.0" encoding="utf-8"?>
<!-- Generator: Adobe Illustrator 26.0.0, SVG Export Plug-In . SVG Version: 6.00 Build 0)  -->
<svg version="1.1" xmlns="http://www.w3.org/2000/svg" xmlns:xlink="http://www.w3.org/1999/xlink" x="0px" y="0px"
	 viewBox="0 0 1027.91 262.72" style="enable-background:new 0 0 1027.91 262.72;" xml:space="preserve">
<style type="text/css">
	.st0{fill:#FFFFFF;}
	.st1{fill:#EC4900;}
	.st2{fill:url(#SVGID_1_);}
	.st3{fill:url(#SVGID_00000141425066969950544100000009587641104105430406_);}
	.st4{fill:url(#SVGID_00000080206291138471602860000004274414818114810804_);}
	.st5{fill:url(#SVGID_00000162328980924419882440000015258762132263003792_);}
	.st6{fill:url(#SVGID_00000112633299312580330800000016295904555037182378_);}
	.st7{fill:url(#SVGID_00000042733629806916468520000017280543584992920467_);}
	.st8{fill:url(#SVGID_00000104694422459760421730000001360765556769282190_);}
	.st9{fill:url(#SVGID_00000059273375627011509740000002345848691136095142_);}
	.st10{fill:url(#SVGID_00000021822782017805012670000008833344242229384085_);}
	.st11{fill:url(#SVGID_00000083790105763699505870000005436408302023967904_);}
	.st12{fill:url(#SVGID_00000178190020517150987980000017848579762874116527_);}
	.st13{fill:url(#SVGID_00000008116423123703080030000009623850000702290820_);}
	.st14{fill:url(#SVGID_00000172426888445052732030000009591717257845313211_);}
	.st15{fill:url(#SVGID_00000090279955938090800290000017946224313983795091_);}
	.st16{fill:url(#SVGID_00000137850275790710907590000004007743255446949527_);}
	.st17{fill:url(#SVGID_00000086657036723074956910000009501220593735771306_);}
	.st18{fill:url(#SVGID_00000047041990828575342900000016808123147089206667_);}
	.st19{fill:url(#SVGID_00000047028559663148288040000000929299689801573050_);}
	.st20{fill:url(#SVGID_00000002357532257557768430000003793003398835849650_);}
	.st21{fill:url(#SVGID_00000083074781612127711580000013956155486438667410_);}
	.st22{fill:url(#SVGID_00000019674159757963578380000015279364799303679162_);}
	.st23{fill:url(#SVGID_00000122703262908955923850000008470145925325639065_);}
	.st24{fill:url(#SVGID_00000159470474290102582890000014848387459359771557_);}
	.st25{fill:url(#SVGID_00000054968483175155948250000003628367537194787251_);}
	.st26{fill:url(#SVGID_00000098942430274837805350000017303080372762670780_);}
</style>
<g id="BACKGROUND">
</g>
<g id="OBJECTS">
	<g>
		<g>
			<path class="st0" d="M357.57,88.09h57.85v8.65h-49.2v45.61c0.58-0.41,1.15-0.74,1.73-0.99c4.53-2.23,10.96-3.34,19.28-3.34
				c7.33-0.08,12.69-1.73,16.07-4.94l5.93,6.3c-5.11,4.78-12.44,7.21-22,7.29c-7.01,0-12.16,0.78-15.45,2.35
				c-2.97,1.48-4.74,3.71-5.32,6.68c-0.17,1.07-0.25,2.31-0.25,3.71v15.2h-8.65V88.09z"/>
			<path class="st0" d="M460.79,88.09c11.54,0,21.47,4.04,29.79,12.11c8.24,8.08,12.61,17.84,13.1,29.3c0,0.66,0,1.28,0,1.85
				c0,11.62-4.04,21.63-12.11,30.04c-7.91,8.32-17.55,12.73-28.93,13.23c-0.66,0-1.28,0-1.85,0c-11.62,0-21.59-4.04-29.91-12.11
				c-8.24-8.08-12.61-17.84-13.1-29.3c0-0.66,0-1.28,0-1.85c0-11.62,4.04-21.63,12.11-30.04c7.91-8.32,17.55-12.73,28.93-13.23
				C459.47,88.09,460.13,88.09,460.79,88.09z M460.79,96.75c-9.81,0-18.09,3.54-24.85,10.63c-6.35,6.76-9.52,14.75-9.52,23.98
				c0,9.89,3.54,18.21,10.63,24.97c6.68,6.43,14.59,9.64,23.73,9.64c9.72,0,17.96-3.54,24.72-10.63c6.34-6.76,9.52-14.75,9.52-23.98
				c0-9.89-3.54-18.21-10.63-24.97C477.73,99.96,469.86,96.75,460.79,96.75z"/>
			<path class="st0" d="M503.56,88.09h9.89l21.02,38.2l21.02-38.2h9.89l-25.96,47.22l21.63,39.31h-9.89l-16.69-30.41l-16.69,30.41
				h-9.89l21.63-39.31L503.56,88.09z"/>
			<path class="st1" d="M607.65,87.97c11.37-0.25,21.26,3.46,29.67,11.13c0.58,0.58,1.15,1.15,1.73,1.73l-6.18,6.06
				c-6.84-6.92-15.08-10.34-24.72-10.26c-4.45,0.08-8.7,0.95-12.73,2.6c-8.32,3.46-14.38,9.27-18.17,17.43
				c-2.14,4.7-3.21,9.6-3.21,14.71c0,9.73,3.42,17.97,10.26,24.72c3.21,3.21,6.88,5.69,11,7.42c9.06,3.79,18.09,3.67,27.07-0.37
				c3.96-1.81,7.42-4.2,10.38-7.17l6.18,6.06c-7.99,8.08-17.64,12.32-28.93,12.73c-6.26,0.16-12.28-0.95-18.05-3.34
				c-9.81-4.12-17.1-10.96-21.88-20.52c-3.13-6.18-4.7-12.73-4.7-19.65c0-11.37,3.91-21.26,11.74-29.67
				c4.28-4.53,9.27-7.99,14.96-10.38C597.1,89.21,602.29,88.14,607.65,87.97z"/>
			<path class="st1" d="M689.24,88.09c11.62,0,21.59,4.04,29.92,12.11c8.24,8.08,12.61,17.84,13.1,29.3c0,0.66,0,1.28,0,1.85
				c0,11.62-4.04,21.63-12.11,30.04c-7.91,8.32-17.55,12.73-28.93,13.23c-0.66,0-1.32,0-1.98,0c-11.54,0-21.47-4.04-29.79-12.11
				c-8.24-8.08-12.61-17.84-13.1-29.3c0-0.66,0-1.28,0-1.85c0-11.62,4.04-21.63,12.11-30.04c7.91-8.32,17.55-12.73,28.93-13.23
				C688.04,88.09,688.66,88.09,689.24,88.09z M689.24,96.75c-9.73,0-17.97,3.54-24.72,10.63c-6.35,6.76-9.52,14.75-9.52,23.98
				c0,9.89,3.54,18.21,10.63,24.97c6.68,6.43,14.54,9.64,23.61,9.64c9.81,0,18.09-3.54,24.85-10.63c6.34-6.76,9.52-14.75,9.52-23.98
				c0-9.89-3.54-18.21-10.63-24.97C706.29,99.96,698.38,96.75,689.24,96.75z"/>
			<path class="st1" d="M745.73,88.09h8.65h6.55c11.54,0,21.47,4.04,29.79,12.11c8.24,8.08,12.61,17.84,13.1,29.3
				c0,0.66,0,1.28,0,1.85c0,11.62-4.04,21.63-12.11,30.04c-7.91,8.32-17.55,12.73-28.93,13.23c-0.66,0-1.28,0-1.85,0h-6.55h-8.65
				V88.09z M754.38,96.75v69.23h6.55c9.72,0,17.96-3.54,24.72-10.63c6.35-6.76,9.52-14.75,9.52-23.98c0-9.89-3.5-18.21-10.51-24.97
				c-6.68-6.34-14.59-9.56-23.73-9.64H754.38z"/>
			<path class="st1" d="M818.66,88.09h8.65v86.53h-8.65V88.09z"/>
			<path class="st1" d="M896.16,88.09h8.65v86.53l-8.65-10.14l-45.37-53.03v63.17h-8.65V88.09l8.65,10.14l45.37,53.03V88.09z"/>
			<path class="st1" d="M960.32,88.09c11.62,0.08,21.55,4.12,29.79,12.11c0.25,0.25,0.45,0.45,0.62,0.62l-6.18,6.06
				c-6.92-7-15.29-10.38-25.09-10.14c-9.07,0.17-16.85,3.5-23.36,10.01c-7.01,7.01-10.38,15.5-10.14,25.47
				c0.25,9.15,3.54,17.02,9.89,23.61c7,7.01,15.41,10.38,25.22,10.14c7.83-0.16,14.75-2.72,20.77-7.66v-14.59
				c-2.97,0.17-5.03,0.49-6.18,0.99c-1.4,0.58-2.35,1.57-2.84,2.97c-0.08,0.33-0.17,0.66-0.25,0.99l-8.28-2.35
				c1.32-4.7,4-7.91,8.03-9.64c2.23-0.91,5.48-1.44,9.77-1.61c2.97-0.16,4.86-0.45,5.69-0.87c0.66-0.33,0.99-0.91,0.99-1.73
				c0.08-0.41,0.12-0.91,0.12-1.48h8.65c0,4.62-1.61,8.04-4.82,10.26c-0.25,0.25-0.49,0.41-0.74,0.49c-0.5,0.25-0.99,0.49-1.48,0.74
				v19.53l-0.12,0.12c-8.16,8.16-18.05,12.32-29.67,12.49c-11.46,0.16-21.34-3.71-29.67-11.62c-0.49-0.41-0.95-0.78-1.36-1.11
				c-8.08-8.32-12.2-18.3-12.36-29.92c-0.16-11.62,3.71-21.67,11.62-30.16c0.33-0.41,0.66-0.78,0.99-1.11
				c8.24-8.24,18.13-12.44,29.67-12.61C959.91,88.09,960.15,88.09,960.32,88.09z"/>
		</g>
		<g>
			<g>
				<linearGradient id="SVGID_1_" gradientUnits="userSpaceOnUse" x1="227.3515" y1="28.4542" x2="246.1639" y2="230.6892">
					<stop  offset="0" style="stop-color:#FF6624"/>
					<stop  offset="0.2454" style="stop-color:#EE5C1D"/>
					<stop  offset="0.7269" style="stop-color:#C3440B"/>
					<stop  offset="1" style="stop-color:#A83400"/>
				</linearGradient>
				<path class="st2" d="M219.26,233.19c40.9-18.93,38.41-61.76,14.7-90.72c-15.54-18.96-32.76-33.41-42.66-48.53
					c-0.01-0.03-0.02-0.04-0.05-0.06c-7.7-11.79-10.94-24-5.44-39.06c4.13-10.1,17.12-23.08,29.96-25.28
					c3.18,29.7,33.65,55.36,52.37,79.17C303.21,153.28,293.58,218.42,219.26,233.19z"/>
				<g>
					
						<linearGradient id="SVGID_00000066478098462612390220000017019115765434132374_" gradientUnits="userSpaceOnUse" x1="238.2184" y1="27.4433" x2="257.1111" y2="230.5413">
						<stop  offset="0" style="stop-color:#A83400"/>
						<stop  offset="0.2731" style="stop-color:#C3440B"/>
						<stop  offset="0.7546" style="stop-color:#EE5C1D"/>
						<stop  offset="1" style="stop-color:#FF6624"/>
					</linearGradient>
					<path style="fill:url(#SVGID_00000066478098462612390220000017019115765434132374_);" d="M215.78,29.53
						c0.37,2.7,0.91,5.38,1.65,8c0.77,2.61,1.66,5.19,2.75,7.68c2.16,4.99,4.86,9.74,7.88,14.25c6,9.08,13.15,17.34,20.41,25.46
						c3.64,4.06,7.32,8.09,10.92,12.19c3.6,4.12,7.19,8.23,10.5,12.63c3.36,4.35,6.3,9.03,8.84,13.91
						c2.53,4.88,4.72,9.96,6.29,15.25c3.14,10.54,4.37,21.77,2.77,32.71c-1.54,10.91-5.67,21.55-12.42,30.29
						c-3.33,4.38-7.14,8.41-11.4,11.89c-4.28,3.44-8.86,6.51-13.71,9.06c-4.89,2.46-9.92,4.69-15.14,6.31
						c-2.57,0.93-5.24,1.56-7.87,2.29c-1.31,0.38-2.66,0.61-3.99,0.9l-4.01,0.84c10.64-2.37,21.09-5.83,30.61-11.08
						c4.77-2.61,9.25-5.7,13.42-9.16c4.15-3.49,7.83-7.5,11.03-11.84c6.44-8.68,10.5-19.03,11.93-29.72
						c1.51-10.7,0.25-21.68-2.87-32c-1.51-5.19-3.63-10.19-6.1-14.99c-2.47-4.81-5.34-9.42-8.63-13.72
						c-6.54-8.66-14.04-16.62-21.16-24.89c-7.15-8.25-14.22-16.64-20.12-25.88c-2.94-4.62-5.54-9.46-7.6-14.54
						c-1.04-2.53-1.87-5.15-2.58-7.78C216.52,34.94,216.06,32.24,215.78,29.53z"/>
				</g>
				
					<linearGradient id="SVGID_00000042012734297929258460000010412211197760412042_" gradientUnits="userSpaceOnUse" x1="212.0672" y1="30.297" x2="220.5638" y2="121.6357">
					<stop  offset="0" style="stop-color:#FFFFFF"/>
					<stop  offset="0.2101" style="stop-color:#EEEEEE"/>
					<stop  offset="0.6219" style="stop-color:#C3C3C3"/>
					<stop  offset="1" style="stop-color:#969696"/>
				</linearGradient>
				<path style="fill:url(#SVGID_00000042012734297929258460000010412211197760412042_);" d="M216.2,95.15
					c-10.1-6.9-15.48-16.57-15.48-16.57c-1.15,6.41-1.04,12.18-0.59,16.51c-9.67-12.68-13.4-23.72-8.26-37.93
					c2.86-6.9,10.7-15.21,18.83-19.16c4.85,19.41,19.31,36.85,33.23,52.6c-19.49-3.83-30.1-15.06-30.1-15.06
					C213.45,84.24,216.2,95.15,216.2,95.15z"/>
				
					<linearGradient id="SVGID_00000109011831398799431210000014777431906496882591_" gradientUnits="userSpaceOnUse" x1="229.5905" y1="40.6698" x2="232.1397" y2="208.9106">
					<stop  offset="0" style="stop-color:#FF6624"/>
					<stop  offset="0.1843" style="stop-color:#EE5E1F"/>
					<stop  offset="0.5478" style="stop-color:#C34712"/>
					<stop  offset="1" style="stop-color:#852800"/>
				</linearGradient>
				<path style="fill:url(#SVGID_00000109011831398799431210000014777431906496882591_);" d="M270.88,185.56
					c-5.74,19.76-18.16,37.27-51.62,47.64c40.9-18.93,38.41-61.76,14.7-90.72c-15.54-18.96-32.76-33.41-42.66-48.53
					c20.16,28.83,30.5,24.39,63,57.83l1.27-8.34c14.98,21.93,7.34,48.17,7.34,48.17L270.88,185.56z"/>
				
					<linearGradient id="SVGID_00000092438827655987887740000001021770318885225874_" gradientUnits="userSpaceOnUse" x1="227.7122" y1="34.3735" x2="213.2496" y2="92.0029">
					<stop  offset="0" style="stop-color:#FFFFFF"/>
					<stop  offset="0.1567" style="stop-color:#EEEEEE"/>
					<stop  offset="0.4656" style="stop-color:#C3C3C3"/>
					<stop  offset="0.8935" style="stop-color:#7D7D7D"/>
					<stop  offset="1" style="stop-color:#6B6B6B"/>
				</linearGradient>
				<path style="fill:url(#SVGID_00000092438827655987887740000001021770318885225874_);" d="M216.2,95.15
					c-10.1-6.9-15.48-16.57-15.48-16.57c-1.15,6.41-1.04,12.18-0.59,16.51c-9.67-12.68-13.4-23.72-8.26-37.93
					c2.86-6.9,10.7-15.21,18.83-19.16c-9.46,11.33-9.78,22.96-6.91,30.93c0,0,1.59-6.37,7.65-10.2c0,0,9.9,23.15,32.5,31.87
					c-19.49-3.83-30.1-15.06-30.1-15.06C213.45,84.24,216.2,95.15,216.2,95.15z"/>
				<g>
					
						<linearGradient id="SVGID_00000151539102201269640280000016554374298740042147_" gradientUnits="userSpaceOnUse" x1="233.9048" y1="110.5515" x2="241.6583" y2="193.9028">
						<stop  offset="0" style="stop-color:#FF6624"/>
						<stop  offset="0.2454" style="stop-color:#EE5C1D"/>
						<stop  offset="0.7269" style="stop-color:#C3440B"/>
						<stop  offset="1" style="stop-color:#A83400"/>
					</linearGradient>
					<path style="fill:url(#SVGID_00000151539102201269640280000016554374298740042147_);" d="M208.45,113.52
						c3.9,3.12,7.95,5.99,12.08,8.79c4.09,2.85,8.17,5.73,12.13,8.79c3.98,3.04,7.77,6.3,11.49,9.65
						c3.72,3.35,7.25,6.89,10.77,10.44l-1.46,0.47l1.3-8.33l0.35-2.25l1.16,1.91l1.66,2.72l0.83,1.36c0.26,0.46,0.47,0.95,0.7,1.43
						l1.38,2.87c0.4,0.98,0.75,1.98,1.13,2.97l0.56,1.49l0.43,1.53c0.28,1.02,0.59,2.03,0.82,3.06l0.61,3.11
						c0.23,1.03,0.29,2.09,0.44,3.13c0.49,4.19,0.63,8.42,0.28,12.61c-0.36,4.18-1,8.35-2.2,12.36c0.89-4.09,1.36-8.24,1.48-12.4
						c0.1-4.16-0.1-8.32-0.73-12.41c-0.18-1.02-0.27-2.05-0.53-3.06l-0.69-3.02c-0.25-1-0.6-1.97-0.89-2.96l-0.45-1.48l-0.57-1.44
						c-0.38-0.96-0.74-1.92-1.14-2.87l-1.38-2.76c-0.24-0.46-0.45-0.93-0.7-1.37l-0.81-1.31l-1.62-2.62l1.52-0.34l-1.25,8.34
						l-0.25,1.7l-1.21-1.23c-3.48-3.54-6.99-7.07-10.64-10.43c-3.63-3.4-7.39-6.64-11.21-9.81c-3.83-3.16-7.81-6.16-11.8-9.14
						C216.07,119.96,212.09,116.93,208.45,113.52z"/>
				</g>
			</g>
			<g>
				<path class="st1" d="M93.07,71.39c-3.99,2.37-8.44,5.55-13.23,9.65c-2.57-5.45-4.71-12.11-6.27-19.17
					c8.44-10.92,15.84-15.31,15.84-15.31C89.51,51.99,90.4,61.66,93.07,71.39z"/>
				
					<linearGradient id="SVGID_00000038379285121533200930000007446438594468762524_" gradientUnits="userSpaceOnUse" x1="82.8238" y1="33.7063" x2="83.4505" y2="75.0683">
					<stop  offset="0" style="stop-color:#FF6624"/>
					<stop  offset="0.1843" style="stop-color:#EE5E1F"/>
					<stop  offset="0.5478" style="stop-color:#C34712"/>
					<stop  offset="1" style="stop-color:#852800"/>
				</linearGradient>
				<path style="fill:url(#SVGID_00000038379285121533200930000007446438594468762524_);" d="M93.07,71.39
					c-3.99,2.37-8.44,5.55-13.23,9.65c-2.57-5.45-4.71-12.11-6.27-19.17c8.44-10.92,15.84-15.31,15.84-15.31
					C89.51,51.99,90.4,61.66,93.07,71.39z"/>
				
					<linearGradient id="SVGID_00000166677553866753509890000012592460328315573411_" gradientUnits="userSpaceOnUse" x1="83.0732" y1="54.4348" x2="82.436" y2="70.0481">
					<stop  offset="0" style="stop-color:#FFFFFF"/>
					<stop  offset="0.2101" style="stop-color:#EEEEEE"/>
					<stop  offset="0.6219" style="stop-color:#C3C3C3"/>
					<stop  offset="1" style="stop-color:#969696"/>
				</linearGradient>
				<path style="fill:url(#SVGID_00000166677553866753509890000012592460328315573411_);" d="M89.02,72.57
					c-2.17-6.45-3.14-12.93-3.41-16.58c0,0-4.82,3.24-10.09,10.91l3.33,12.33l10.42-4.11"/>
				
					<linearGradient id="SVGID_00000019674839440557458240000006645321985016680383_" gradientUnits="userSpaceOnUse" x1="88.6085" y1="37.7204" x2="106.9385" y2="234.7697">
					<stop  offset="0" style="stop-color:#FF6624"/>
					<stop  offset="0.2454" style="stop-color:#EE5C1D"/>
					<stop  offset="0.7269" style="stop-color:#C3440B"/>
					<stop  offset="1" style="stop-color:#A83400"/>
				</linearGradient>
				<path style="fill:url(#SVGID_00000019674839440557458240000006645321985016680383_);" d="M123.9,233.19
					c-1.04,0-2.07-0.01-3.08-0.04c-94.32-2.13-106.93-97.49-73.99-139.21c8.64-10.93,3.08-36.27,29.74-55.1
					c-0.45,5.07-0.5,10.42-0.17,15.6c0.37,6.29,1.3,12.33,2.76,17.38c4.69-2.87,8.97-5,12.73-6.49c6.35-2.56,11.27-3.34,14.4-3.14
					c3.78,0.26,7.76,3.86,14.03,5.38c13.19-2.23,23.74-6.05,37.04-12.75c12.57,34.39-20.45,53.9-48.15,87.66
					C85.49,171.43,83,214.26,123.9,233.19z"/>
				<g>
					
						<linearGradient id="SVGID_00000140009529969069124420000008798144483958871990_" gradientUnits="userSpaceOnUse" x1="61.0249" y1="39.5384" x2="79.4731" y2="237.8577">
						<stop  offset="0" style="stop-color:#A83400"/>
						<stop  offset="0.2731" style="stop-color:#C3440B"/>
						<stop  offset="0.7546" style="stop-color:#EE5C1D"/>
						<stop  offset="1" style="stop-color:#FF6624"/>
					</linearGradient>
					<path style="fill:url(#SVGID_00000140009529969069124420000008798144483958871990_);" d="M120.82,233.15l-8.14-0.31
						c-2.71-0.23-5.4-0.57-8.11-0.86c-2.69-0.41-5.36-0.95-8.04-1.42c-2.64-0.67-5.29-1.31-7.91-2.06
						c-10.41-3.23-20.28-8.32-28.82-15.19c-4.16-3.54-8.18-7.32-11.51-11.68c-1.79-2.08-3.24-4.41-4.82-6.65
						c-0.74-1.15-1.4-2.35-2.1-3.53l-1.04-1.77c-0.33-0.6-0.61-1.22-0.92-1.83l-1.82-3.68l-1.56-3.8c-0.25-0.64-0.53-1.26-0.77-1.91
						l-0.65-1.95c-0.42-1.3-0.9-2.59-1.27-3.9c-0.69-2.65-1.47-5.28-1.93-7.98c-0.6-2.67-0.92-5.4-1.29-8.11
						c-1.12-10.89-0.55-21.97,2-32.62c1.27-5.32,2.93-10.57,5.24-15.54c2.28-4.97,4.96-9.8,8.39-14.09
						c3.43-4.1,4.66-9.49,5.99-14.71c1.29-5.26,2.58-10.59,4.6-15.67c2.01-5.08,4.75-9.88,8.18-14.12c1.72-2.11,3.62-4.08,5.62-5.91
						c2.01-1.83,4.19-3.46,6.41-5.03c-4.37,3.22-8.36,6.95-11.68,11.22c-3.3,4.29-5.88,9.08-7.75,14.14
						c-1.91,5.05-3.12,10.33-4.33,15.62c-0.61,2.65-1.25,5.3-2.13,7.92c-0.46,1.3-0.95,2.6-1.6,3.84c-0.3,0.63-0.69,1.22-1.06,1.82
						l-1.2,1.69l-2.34,3.28l-2.09,3.44c-0.74,1.12-1.27,2.36-1.92,3.54l-0.93,1.79c-0.29,0.61-0.54,1.23-0.81,1.85
						c-2.24,4.89-3.85,10.05-5.07,15.29c-2.46,10.48-2.96,21.39-1.82,32.08c0.35,2.67,0.65,5.34,1.23,7.97
						c0.44,2.66,1.2,5.24,1.86,7.85c0.36,1.29,0.83,2.56,1.23,3.84l0.63,1.92c0.23,0.63,0.5,1.25,0.74,1.87l1.52,3.74l1.77,3.62
						c0.3,0.6,0.57,1.22,0.9,1.8l1.01,1.74c0.68,1.16,1.32,2.34,2.05,3.47c1.54,2.2,2.95,4.5,4.7,6.55
						c3.26,4.29,7.15,8.04,11.18,11.59c8.29,6.87,17.96,12.04,28.23,15.4C99.15,231.14,109.98,232.67,120.82,233.15z"/>
				</g>
				
					<linearGradient id="SVGID_00000016053126466761953070000015572802735670491036_" gradientUnits="userSpaceOnUse" x1="102.7432" y1="-11.4558" x2="105.9895" y2="202.7908">
					<stop  offset="0" style="stop-color:#FF6624"/>
					<stop  offset="0.1843" style="stop-color:#EE5E1F"/>
					<stop  offset="0.5478" style="stop-color:#C34712"/>
					<stop  offset="1" style="stop-color:#852800"/>
				</linearGradient>
				<path style="fill:url(#SVGID_00000016053126466761953070000015572802735670491036_);" d="M123.9,233.19
					C28.77,222.82,37.69,119.06,77.94,99.94c-5.41-0.95-15.4-0.85-15.4-0.85c13.6-15.72,77.75-15.93,94.81-44.28
					c12.57,34.39-20.45,53.9-48.15,87.66C85.49,171.43,83,214.26,123.9,233.19z"/>
				
					<linearGradient id="SVGID_00000027603873995222111340000008318892383882908802_" gradientUnits="userSpaceOnUse" x1="119.5797" y1="50.6917" x2="81.3435" y2="238.0495">
					<stop  offset="0" style="stop-color:#FFFFFF"/>
					<stop  offset="0.2101" style="stop-color:#EEEEEE"/>
					<stop  offset="0.6219" style="stop-color:#C3C3C3"/>
					<stop  offset="1" style="stop-color:#969696"/>
				</linearGradient>
				<path style="fill:url(#SVGID_00000027603873995222111340000008318892383882908802_);" d="M124.72,115.68
					c-6.75,7.06-13.72,14.36-20.54,22.69c-15.26,18.62-21.67,41.53-17.15,61.28c2.01,8.72,5.99,16.51,11.81,23.18
					c-20.09-6.76-35.68-40.09-30.7-67.97c-3.39,5.24-6.21,10.94-8.15,16.89c-7.23-72.43,79.95-76.58,93.15-107.7
					C156.14,81.66,144.36,95.13,124.72,115.68z"/>
				
					<linearGradient id="SVGID_00000121272208799858028570000004902468954172144256_" gradientUnits="userSpaceOnUse" x1="133.8098" y1="36.3926" x2="92.0681" y2="202.7221">
					<stop  offset="0" style="stop-color:#FFFFFF"/>
					<stop  offset="0.1567" style="stop-color:#EEEEEE"/>
					<stop  offset="0.4656" style="stop-color:#C3C3C3"/>
					<stop  offset="0.8935" style="stop-color:#7D7D7D"/>
					<stop  offset="1" style="stop-color:#6B6B6B"/>
				</linearGradient>
				<path style="fill:url(#SVGID_00000121272208799858028570000004902468954172144256_);" d="M124.72,115.68
					c-6.75,7.06-13.72,14.36-20.54,22.69c-15.26,18.62-21.67,41.53-17.15,61.28c2.01,8.72,5.99,16.51,11.81,23.18
					c-30.5-23.59-23.32-70.62-5.77-92.92c-5.09,1.27-13.52,7.05-13.52,7.05c13.52-29.56,74.05-43.01,73.59-72.91
					C156.14,81.66,144.36,95.13,124.72,115.68z"/>
				<g>
					
						<linearGradient id="SVGID_00000150062272878447897760000002309596656784753855_" gradientUnits="userSpaceOnUse" x1="101.7683" y1="68.4076" x2="111.319" y2="171.0781">
						<stop  offset="0" style="stop-color:#FF6624"/>
						<stop  offset="0.2454" style="stop-color:#EE5C1D"/>
						<stop  offset="0.7269" style="stop-color:#C3440B"/>
						<stop  offset="1" style="stop-color:#A83400"/>
					</linearGradient>
					<path style="fill:url(#SVGID_00000150062272878447897760000002309596656784753855_);" d="M68.14,154.85
						c-3.26,5.35-5.98,11.03-7.79,17l-0.52,1.72l-0.2-1.8c-0.35-3.16-0.55-6.34-0.54-9.53c0.03-3.19,0.24-6.38,0.68-9.55
						c0.89-6.33,2.78-12.55,5.68-18.28c2.88-5.74,6.72-10.97,11.14-15.6c2.21-2.32,4.55-4.5,7-6.56c2.46-2.05,5.01-3.96,7.63-5.78
						c10.49-7.27,21.84-13.05,33.02-18.95c5.58-2.98,11.1-6.08,16.25-9.71c2.56-1.83,5.04-3.8,7.23-6.07
						c1.11-1.12,2.1-2.35,3.04-3.62c0.91-1.29,1.71-2.65,2.39-4.09c-0.6,1.47-1.34,2.88-2.2,4.22c-0.89,1.32-1.86,2.59-2.93,3.77
						c-2.13,2.37-4.56,4.46-7.08,6.4c-5.08,3.85-10.6,7.04-16.12,10.17l-16.61,9.22c-5.5,3.12-10.91,6.39-16.05,10.02
						c-2.57,1.82-5.07,3.73-7.48,5.75c-2.42,2-4.73,4.13-6.91,6.38c-4.36,4.5-8.13,9.57-10.98,15.15
						c-2.84,5.57-4.81,11.58-5.83,17.78c-0.5,3.1-0.78,6.23-0.88,9.38c-0.08,3.15,0.07,6.3,0.28,9.44l-0.73-0.08
						C61.71,165.67,64.59,160.02,68.14,154.85z"/>
				</g>
				<g>
					
						<linearGradient id="SVGID_00000111893908440599228620000016660275255389366403_" gradientUnits="userSpaceOnUse" x1="76.8047" y1="96.9098" x2="89.8552" y2="237.2044">
						<stop  offset="0" style="stop-color:#FF6624"/>
						<stop  offset="0.2454" style="stop-color:#EE5C1D"/>
						<stop  offset="0.7269" style="stop-color:#C3440B"/>
						<stop  offset="1" style="stop-color:#A83400"/>
					</linearGradient>
					<path style="fill:url(#SVGID_00000111893908440599228620000016660275255389366403_);" d="M123.9,233.19
						c-7.68-0.7-15.34-2.08-22.74-4.39c-7.41-2.28-14.51-5.6-21.02-9.87c-6.51-4.27-12.29-9.67-17-15.9
						c-4.72-6.22-8.36-13.24-10.83-20.64c-2.49-7.4-3.74-15.19-3.92-22.98c-0.18-7.79,0.7-15.6,2.69-23.14
						c1.98-7.53,5.1-14.79,9.48-21.24c4.34-6.44,10.15-12.08,17.25-15.35l0.07,0.51c-2.51-0.46-5.08-0.66-7.64-0.82
						c-2.57-0.15-5.14-0.26-7.71-0.29c2.57-0.06,5.15-0.08,7.72-0.01c2.57,0.08,5.15,0.2,7.72,0.59l0.84,0.13l-0.77,0.39
						c-3.42,1.73-6.55,3.98-9.29,6.64c-2.77,2.63-5.19,5.62-7.27,8.82c-4.21,6.4-7.05,13.61-8.97,21
						c-3.8,14.82-3.32,30.7,1.39,45.22c2.36,7.25,5.88,14.14,10.46,20.24c2.29,3.05,4.83,5.91,7.6,8.55
						c2.76,2.64,5.72,5.08,8.88,7.24c6.31,4.33,13.28,7.7,20.56,10.16C108.67,230.6,116.26,232.13,123.9,233.19z"/>
				</g>
			</g>
			<g>
				<g>
					<g>
						
							<linearGradient id="SVGID_00000150809061407247559460000009051291319624699283_" gradientUnits="userSpaceOnUse" x1="165.0677" y1="235.7006" x2="129.6685" y2="185.3088">
							<stop  offset="0" style="stop-color:#FF6624"/>
							<stop  offset="0.1843" style="stop-color:#EE5E1F"/>
							<stop  offset="0.5478" style="stop-color:#C34712"/>
							<stop  offset="1" style="stop-color:#852800"/>
						</linearGradient>
						<path style="fill:url(#SVGID_00000150809061407247559460000009051291319624699283_);" d="M155.89,221.83l-3.46,3.46
							c-0.27-0.27-0.53-0.54-0.8-0.8l-24.51-24.51l-15.21-15.2l15.21-15.23l15.2,15.23l5.8,5.78l7.77,7.76
							C162.38,204.82,162.38,215.35,155.89,221.83z"/>
						
							<linearGradient id="SVGID_00000153669948521330326250000007765925732242443704_" gradientUnits="userSpaceOnUse" x1="175.7458" y1="220.612" x2="135.2664" y2="194.3551">
							<stop  offset="0" style="stop-color:#FF6624"/>
							<stop  offset="0.1843" style="stop-color:#EE5E1F"/>
							<stop  offset="0.5478" style="stop-color:#C34712"/>
							<stop  offset="1" style="stop-color:#852800"/>
						</linearGradient>
						<path style="fill:url(#SVGID_00000153669948521330326250000007765925732242443704_);" d="M151.64,224.49l-24.51-24.51
							l-15.21-15.2l15.21-15.23l15.2,15.23l5.8,5.78C139.51,199.45,135.37,207.82,151.64,224.49z"/>
						
							<linearGradient id="SVGID_00000150802919388887879020000009240860265754403517_" gradientUnits="userSpaceOnUse" x1="133.9394" y1="145.9684" x2="139.9349" y2="210.4207">
							<stop  offset="0" style="stop-color:#FF6624"/>
							<stop  offset="0.2454" style="stop-color:#EE5C1D"/>
							<stop  offset="0.7269" style="stop-color:#C3440B"/>
							<stop  offset="1" style="stop-color:#A83400"/>
						</linearGradient>
						<path style="fill:url(#SVGID_00000150802919388887879020000009240860265754403517_);" d="M155.89,171.21l-18.13,18.13
							c-5.7,5.7-5.88,14.83-0.53,20.73c0.16,0.19,0.34,0.37,0.53,0.56l-25.85-25.84l15.21-15.23l25.31-25.31l3.46,3.46
							C162.38,154.19,162.38,164.72,155.89,171.21z"/>
						
							<linearGradient id="SVGID_00000055683326439740700870000003382534387095499143_" gradientUnits="userSpaceOnUse" x1="153.4573" y1="128.8985" x2="140.1466" y2="198.0051">
							<stop  offset="0" style="stop-color:#FF6624"/>
							<stop  offset="0.2454" style="stop-color:#EE5C1D"/>
							<stop  offset="0.7269" style="stop-color:#C3440B"/>
							<stop  offset="1" style="stop-color:#A83400"/>
						</linearGradient>
						<path style="fill:url(#SVGID_00000055683326439740700870000003382534387095499143_);" d="M155.89,171.21l-18.13,18.13
							c-5.7,5.7-5.88,14.83-0.53,20.73c-28.34-29.11,19.47-45.31,15.2-65.82l3.46,3.46C162.38,154.19,162.38,164.72,155.89,171.21z"
							/>
					</g>
					<g>
						
							<linearGradient id="SVGID_00000129187706069063957650000012081823095952796339_" gradientUnits="userSpaceOnUse" x1="143.011" y1="171.7489" x2="146.543" y2="209.7182">
							<stop  offset="0" style="stop-color:#FF6624"/>
							<stop  offset="0.2454" style="stop-color:#EE5C1D"/>
							<stop  offset="0.7269" style="stop-color:#C3440B"/>
							<stop  offset="1" style="stop-color:#A83400"/>
						</linearGradient>
						<path style="fill:url(#SVGID_00000129187706069063957650000012081823095952796339_);" d="M155.89,171.21
							c-5.24,6.19-10.85,12.02-16.54,17.76l-1.07,1.06c-0.32,0.36-0.66,0.69-0.96,1.06c-0.28,0.39-0.59,0.75-0.85,1.15
							c-0.24,0.41-0.52,0.8-0.73,1.23c-0.92,1.68-1.46,3.56-1.67,5.47c-0.4,3.84,0.68,7.89,3.16,11.11
							c-1.51-1.37-2.66-3.13-3.46-5.05c-0.77-1.93-1.14-4.05-1.04-6.15c0.07-2.11,0.63-4.21,1.56-6.12
							c0.47-0.96,1.06-1.85,1.71-2.69c0.33-0.42,0.7-0.8,1.05-1.2l1.07-1.09C143.87,182.06,149.7,176.45,155.89,171.21z"/>
					</g>
				</g>
				<g>
					<g>
						
							<linearGradient id="SVGID_00000083794679139029653240000012168349748278554262_" gradientUnits="userSpaceOnUse" x1="182.7732" y1="295.2034" x2="147.374" y2="244.8116" gradientTransform="matrix(-1 0 0 -1 360.68 429.0417)">
							<stop  offset="0" style="stop-color:#FF6624"/>
							<stop  offset="0.1843" style="stop-color:#EE5E1F"/>
							<stop  offset="0.5478" style="stop-color:#C34712"/>
							<stop  offset="1" style="stop-color:#852800"/>
						</linearGradient>
						<path style="fill:url(#SVGID_00000083794679139029653240000012168349748278554262_);" d="M187.08,147.7l3.46-3.46
							c0.27,0.27,0.53,0.54,0.8,0.8l24.51,24.51l15.21,15.2l-15.21,15.23l-15.2-15.23l-5.8-5.78l-7.77-7.76
							C180.6,164.72,180.6,154.19,187.08,147.7z"/>
						
							<linearGradient id="SVGID_00000035511580083751424480000006328644910454122636_" gradientUnits="userSpaceOnUse" x1="193.4513" y1="280.1148" x2="152.9719" y2="253.8579" gradientTransform="matrix(-1 0 0 -1 360.68 429.0417)">
							<stop  offset="0" style="stop-color:#FF6624"/>
							<stop  offset="0.1843" style="stop-color:#EE5E1F"/>
							<stop  offset="0.5478" style="stop-color:#C34712"/>
							<stop  offset="1" style="stop-color:#852800"/>
						</linearGradient>
						<path style="fill:url(#SVGID_00000035511580083751424480000006328644910454122636_);" d="M191.34,145.05l24.51,24.51
							l15.21,15.2l-15.21,15.23l-15.2-15.23l-5.8-5.78C203.46,170.09,207.61,161.72,191.34,145.05z"/>
						
							<linearGradient id="SVGID_00000046300987767600730850000015207195224328236196_" gradientUnits="userSpaceOnUse" x1="151.6449" y1="205.4712" x2="157.6404" y2="269.9234" gradientTransform="matrix(-1 0 0 -1 360.68 429.0417)">
							<stop  offset="0" style="stop-color:#FF6624"/>
							<stop  offset="0.2454" style="stop-color:#EE5C1D"/>
							<stop  offset="0.7269" style="stop-color:#C3440B"/>
							<stop  offset="1" style="stop-color:#A83400"/>
						</linearGradient>
						<path style="fill:url(#SVGID_00000046300987767600730850000015207195224328236196_);" d="M187.08,198.32l18.13-18.13
							c5.7-5.7,5.88-14.83,0.53-20.73c-0.16-0.19-0.34-0.37-0.53-0.56l25.85,25.84l-15.21,15.23l-25.31,25.31l-3.46-3.46
							C180.6,215.35,180.6,204.82,187.08,198.32z"/>
						
							<linearGradient id="SVGID_00000129203529362592023600000014002566140437821327_" gradientUnits="userSpaceOnUse" x1="171.1628" y1="188.4012" x2="157.8521" y2="257.5078" gradientTransform="matrix(-1 0 0 -1 360.68 429.0417)">
							<stop  offset="0" style="stop-color:#FF6624"/>
							<stop  offset="0.2454" style="stop-color:#EE5C1D"/>
							<stop  offset="0.7269" style="stop-color:#C3440B"/>
							<stop  offset="1" style="stop-color:#A83400"/>
						</linearGradient>
						<path style="fill:url(#SVGID_00000129203529362592023600000014002566140437821327_);" d="M187.08,198.32l18.13-18.13
							c5.7-5.7,5.88-14.83,0.53-20.73c28.34,29.11-19.47,45.31-15.2,65.82l-3.46-3.46C180.6,215.35,180.6,204.82,187.08,198.32z"/>
					</g>
					<g>
						
							<linearGradient id="SVGID_00000124122880827254932190000000167375983271229827_" gradientUnits="userSpaceOnUse" x1="199.9635" y1="197.7901" x2="196.4315" y2="159.8208">
							<stop  offset="0" style="stop-color:#FF6624"/>
							<stop  offset="0.2454" style="stop-color:#EE5C1D"/>
							<stop  offset="0.7269" style="stop-color:#C3440B"/>
							<stop  offset="1" style="stop-color:#A83400"/>
						</linearGradient>
						<path style="fill:url(#SVGID_00000124122880827254932190000000167375983271229827_);" d="M187.08,198.32
							c5.24-6.19,10.85-12.02,16.54-17.76l1.07-1.06c0.32-0.36,0.66-0.69,0.96-1.06c0.28-0.39,0.59-0.75,0.85-1.15
							c0.24-0.41,0.52-0.8,0.73-1.23c0.92-1.68,1.46-3.56,1.67-5.47c0.4-3.84-0.68-7.89-3.16-11.11c1.51,1.37,2.66,3.13,3.46,5.05
							c0.77,1.93,1.14,4.05,1.04,6.15c-0.07,2.11-0.63,4.21-1.56,6.12c-0.47,0.96-1.06,1.85-1.71,2.69c-0.33,0.42-0.7,0.8-1.05,1.2
							l-1.07,1.09C199.1,187.48,193.28,193.09,187.08,198.32z"/>
					</g>
				</g>
			</g>
		</g>
	</g>
</g>
</svg>
